<svg width="16" height="16" viewBox="0 0 16 16" fill="none" xmlns="http://www.w3.org/2000/svg">
<path d="M6.83337 7.5H0.5C0.223999 7.5 0 7.276 0 7C0 6.724 0.223999 6.5 0.5 6.5H6.83337C7.10938 6.5 7.33337 6.724 7.33337 7C7.33337 7.276 7.10938 7.5 6.83337 7.5Z" fill="white"/>
<path d="M4.33337 10C4.20532 10 4.07739 9.95129 3.97998 9.85339C3.78467 9.65796 3.78467 9.34131 3.97998 9.146L6.12671 6.99939L3.97998 4.85339C3.78467 4.65796 3.78467 4.34131 3.97998 4.146C4.17529 3.95068 4.49194 3.95068 4.68738 4.146L7.18738 6.646C7.38269 6.84131 7.38269 7.15796 7.18738 7.35339L4.68738 9.85339C4.58936 9.95129 4.4613 10 4.33337 10Z" fill="white"/>
<path d="M10.6666 16C9.93127 16 9.33337 15.402 9.33337 14.6666V2.66662C9.33337 2.09667 9.69604 1.588 10.236 1.40062L14.2413 0.0652966C15.1373 -0.209362 16 0.455311 16 1.33336V13.3334C16 13.9027 15.6373 14.4106 15.098 14.5986L11.0913 15.9347C10.9453 15.98 10.8101 16 10.6666 16ZM14.6666 0.999989C14.6233 0.999989 14.5867 1.00536 14.5474 1.01732L10.5587 2.34728C10.428 2.39269 10.3334 2.52465 10.3334 2.66662V14.6666C10.3334 14.894 10.58 15.0474 10.786 14.9827L14.7747 13.6527C14.9047 13.6073 15 13.4753 15 13.3334V1.33336C15 1.15001 14.8507 0.999989 14.6666 0.999989Z" fill="white"/>
<path d="M5.83337 3.33337C5.55737 3.33337 5.33337 3.10938 5.33337 2.83337V1.83337C5.33337 0.822021 6.15527 0 7.16663 0H14.6666C14.9426 0 15.1666 0.223999 15.1666 0.5C15.1666 0.776001 14.9426 1 14.6666 1H7.16663C6.70728 1 6.33337 1.37402 6.33337 1.83337V2.83337C6.33337 3.10938 6.10938 3.33337 5.83337 3.33337Z" fill="white"/>
<path d="M9.83337 14H7.16663C6.15527 14 5.33337 13.178 5.33337 12.1666V11.1666C5.33337 10.8906 5.55737 10.6666 5.83337 10.6666C6.10938 10.6666 6.33337 10.8906 6.33337 11.1666V12.1666C6.33337 12.626 6.70728 13 7.16663 13H9.83337C10.1094 13 10.3334 13.224 10.3334 13.5C10.3334 13.776 10.1094 14 9.83337 14Z" fill="white"/>
</svg>
