<svg width="412" height="373" viewBox="0 0 412 373" fill="none" xmlns="http://www.w3.org/2000/svg">
<path d="M364.654 148.889H74.7227V369.893H364.654V148.889Z" fill="#FFC253"/>
<path d="M74.7227 148.889L210.802 288.825C215.836 294.006 223.541 294.006 228.559 288.825L364.638 148.889H74.7227Z" fill="#E09736"/>
<path d="M364.654 369.893L219.688 199.384L364.654 355.373V369.893Z" fill="#E09736"/>
<path d="M74.7227 369.893L219.688 199.384L74.7227 355.373V369.893Z" fill="#E09736"/>
<path d="M74.7227 148.889L208.714 276.475C215.043 282.513 224.318 282.513 230.647 276.475L364.638 148.889H74.7227Z" fill="#FFC854"/>
<path d="M341.491 369.894C341.491 369.894 332.313 365.224 332.993 354.132C333.657 343.041 340.374 340.761 346.201 336.729C352.012 332.698 352.465 325.894 352.692 317.557C352.919 309.22 357.839 300.92 367.681 301.413C377.522 301.905 381.164 304.185 388.302 294.608C395.44 285.031 405.055 285.268 409.085 290.577C413.116 295.867 413.375 304.988 407.256 311.263C399.827 318.907 397.901 320.822 395.748 329.232C392.834 340.633 397.043 351.761 393.288 357.069C388.286 364.166 382.88 362.414 377.732 364.713C372.585 367.011 372.391 369.894 372.391 369.894H341.491Z" fill="#40C7A7"/>
<path d="M400.199 297.965C385.145 307.87 358.94 337.952 354.488 369.912" stroke="#3B55CE" stroke-width="1.05" stroke-miterlimit="10" stroke-linecap="round"/>
<path d="M171.372 43.2673C171.372 40.458 173.395 38.1777 175.888 38.1777C178.381 38.1777 180.404 40.458 180.404 43.2673C180.404 46.0766 178.381 48.3569 175.888 48.3569C173.395 48.3569 171.372 46.0766 171.372 43.2673Z" fill="#3B55CE"/>
<path d="M127.054 208.468C126.439 209.253 126.374 211.132 129.239 213.485C132.104 215.838 137.979 216.768 140.375 216.878C142.771 216.987 144.325 216.623 147.529 218.337C150.734 220.052 156.351 221.22 158.374 220.07C159.119 219.468 159.054 217.79 159.054 217.79L127.054 208.468Z" fill="#AAEEED"/>
<path d="M159.751 205.568C159.653 208.304 160.22 214.981 159.055 217.827C156.19 219.45 151.075 218.228 147.497 216.094C143.92 213.978 140.764 215.455 135.908 214.47C131.149 213.503 127.54 210.968 127.054 208.487C126.52 205.787 135.131 206.152 141.136 205.732C147.854 205.258 151.835 202.667 151.835 202.667L159.751 205.568Z" fill="#1E4174"/>
<path d="M148.696 207.902C148.696 207.902 148.34 204.035 147.077 202.484" stroke="#AAEEED" stroke-width="0.5508" stroke-miterlimit="10" stroke-linecap="round"/>
<path d="M144.034 208.65C144.034 208.65 143.678 204.783 142.415 203.232" stroke="#AAEEED" stroke-width="0.5508" stroke-miterlimit="10" stroke-linecap="round"/>
<path d="M139.372 209.398C139.372 209.398 139.015 205.531 137.753 203.98" stroke="#AAEEED" stroke-width="0.5508" stroke-miterlimit="10" stroke-linecap="round"/>
<path d="M162.291 196.008L159.766 205.567C159.766 205.567 158.617 205.677 158.034 206.151C157.468 206.625 156.432 208.431 155.671 208.249C152.66 207.574 151.835 202.649 151.835 202.649L153.972 192.652L162.291 196.008Z" fill="#FF9A8D"/>
<path d="M205.914 111.347L204.764 121.416L173.573 120.705C173.573 120.705 166.224 120.541 164.055 128.95C161.87 137.36 153.729 193.82 153.729 193.82C153.729 193.82 158.115 197.468 162.566 196.665C162.566 196.665 177.28 162.37 179.384 152.957C181.488 143.544 180.436 135.591 180.436 135.591L218.037 131.906L205.914 111.347Z" fill="#1E4174"/>
<path d="M160.511 231.217C160.559 232.257 161.676 233.661 165.189 233.096C168.701 232.53 173.476 228.553 175.257 226.747C177.037 224.942 177.911 223.464 181.278 222.15C184.645 220.855 189.371 217.243 190.1 214.835C190.261 213.814 189.177 212.665 189.177 212.665L160.511 231.217Z" fill="#AAEEED"/>
<path d="M182.087 203.361C183.722 205.404 188.271 209.71 189.193 212.665C188.157 216.076 183.738 219.232 179.854 220.545C175.969 221.859 174.642 225.398 170.563 228.517C166.564 231.582 162.405 232.604 160.527 231.217C158.471 229.703 164.849 223.172 168.879 218.137C173.395 212.501 174.625 207.521 174.625 207.521L182.087 203.361Z" fill="#1E4174"/>
<path d="M175.629 213.741C175.629 213.741 172.975 211.26 171.113 211.151" stroke="#AAEEED" stroke-width="0.5508" stroke-miterlimit="10" stroke-linecap="round"/>
<path d="M172.764 217.955C172.764 217.955 170.109 215.474 168.248 215.365" stroke="#AAEEED" stroke-width="0.5508" stroke-miterlimit="10" stroke-linecap="round"/>
<path d="M169.882 222.169C169.882 222.169 167.228 219.688 165.366 219.578" stroke="#AAEEED" stroke-width="0.5508" stroke-miterlimit="10" stroke-linecap="round"/>
<path d="M180.712 194.969L182.087 203.361C182.087 203.361 181.327 204.346 181.213 205.148C181.1 205.951 181.472 208.031 180.825 208.523C178.251 210.42 174.609 207.538 174.609 207.538L171.599 197.158L180.712 194.969Z" fill="#FF9A8D"/>
<path d="M229.385 107.133C230.518 110.435 233.075 114.375 234.678 117.44C236.28 120.523 241.233 128.714 238.368 137.324C235.293 146.573 228.478 148.871 221.421 148.871C214.364 148.871 209.815 148.871 204.992 148.871C200.184 148.871 170.579 140.681 170.579 140.681C170.579 140.681 173.995 142.888 175.662 148.871C177.329 154.855 180.696 194.951 180.696 194.951C178.511 197.432 175.468 198.454 171.583 198.107C171.583 198.107 162.713 167.022 159.038 155.512C155.186 143.49 150.897 131.778 151.722 126.598C152.888 119.319 164.072 119.1 173.315 119.465C182.557 119.83 203.81 120.724 208.132 120.049L205.898 111.329L229.385 107.133Z" fill="#85B8ED"/>
<path d="M238.367 137.341C241.232 128.713 236.279 120.522 234.677 117.457C233.074 114.374 230.517 110.452 229.384 107.15L205.913 111.346L207.354 116.91C207.354 116.91 220.368 118.917 226.049 111.346C226.049 111.346 230.193 118.461 231.407 122.729C233.058 128.603 232.605 138.162 222.391 140.442C212.178 142.741 174.447 136.484 169.462 135.864C164.46 135.243 166.127 138.49 168.911 145.094C171.679 151.698 172.845 163.555 175.337 177.748C176.923 186.814 178.736 196.683 178.736 196.683C179.465 196.209 180.145 195.643 180.743 194.968C180.743 194.968 177.377 154.89 175.71 148.888C174.042 142.905 170.627 140.698 170.627 140.698C170.627 140.698 200.216 148.888 205.039 148.888C209.847 148.888 214.411 148.888 221.469 148.888C228.526 148.888 235.292 146.59 238.367 137.341Z" fill="#4E7EAC"/>
<path d="M220.578 107.17C221.728 115.032 224.657 118.918 224.366 126.105C224.075 133.293 218.927 136.959 203.906 135.445C188.901 133.931 165.82 130.137 163.796 130.775C161.773 131.414 162.453 134.862 165.14 145.114C167.827 155.366 177.004 200.971 177.004 200.971" stroke="#274D79" stroke-width="0.5508" stroke-miterlimit="10"/>
<path d="M224.156 127.912C224.156 127.912 220.838 128.769 218.167 126.124C215.496 123.479 214.735 111.384 214.735 111.384" stroke="#274D79" stroke-width="0.5508" stroke-miterlimit="10"/>
<path d="M169.51 194.386C169.51 194.386 176.162 196.065 181.294 190.355" stroke="#274D79" stroke-width="0.5508" stroke-miterlimit="10"/>
<path d="M219.397 11.0875C219.397 11.0875 214.687 6.59994 205.914 7.53029C198.921 8.27822 193.806 12.857 192.204 18.6215C190.601 24.3861 191.087 34.93 199.552 40.8223C199.552 40.8223 196.93 42.4458 199.844 45.5652C199.844 45.5652 195.311 46.8057 193.855 49.6515C192.398 52.4972 193.855 55.1424 194.729 58.3347C195.603 61.5271 195.894 62.0379 192.107 66.3066C188.303 70.5935 185.033 78.164 190.407 87.8871C195.765 97.6101 205.088 105.746 218.037 104.98C231.132 104.196 245.926 99.2702 249.633 76.5404C253.34 53.8107 240.634 48.6299 237.121 49.6515C237.121 49.6515 240.99 39.9466 239.824 27.4325C238.659 14.9184 233.236 9.29978 228.672 8.89845C221.938 8.29646 219.397 11.0875 219.397 11.0875Z" fill="#001C45"/>
<path d="M216.662 55.9273C214.93 56.5111 212.033 57.0036 210.512 58.3535C208.974 59.7034 193.839 86.264 193.839 86.264C193.839 86.264 179.903 61.6736 177.831 58.7548C175.662 55.6902 165.028 51.8411 163.101 52.2789C160.706 52.8261 162.001 56.1827 162.486 58.3535C162.762 59.6122 163.199 63.06 165.173 64.5923C167.148 66.1247 174.141 67.3104 174.141 67.3104C174.141 67.3104 186.685 97.0634 189.275 101.514C190.958 104.397 192.804 104.433 195.911 100.584C198.922 96.8445 210.949 79.0766 210.949 79.0766L216.662 55.9273Z" fill="#FF9A8D"/>
<path d="M216.662 55.9268C213.894 57.0578 211.353 56.9848 209.945 58.9914C208.553 60.9981 207.339 70.1739 207.339 70.1739C207.339 70.1739 214.267 68.6233 216.112 64.5188C217.957 60.4143 218.006 56.7112 218.006 56.7112L216.662 55.9268Z" fill="#03AA99"/>
<path d="M226.309 50.8008C226.309 50.8008 227.507 51.7494 228.656 51.7494C230.194 52.0048 235.244 53.2452 236.264 55.3613C238.708 59.1739 236.199 71.6516 234.774 80.4261C233.9 85.771 225.5 97.7561 231.246 109.997C231.246 109.997 218.313 118.607 205.267 111.328C203.907 104.05 205.509 98.9784 205.558 90.7694C203.713 88.5074 201.884 84.3664 201.722 81.6848C201.107 71.6881 209.977 68.6416 216.888 57.5139C218.815 54.4127 220.271 54.5587 222.91 52.2966C224.593 50.819 226.309 50.8008 226.309 50.8008Z" fill="#3ED9C7"/>
<path d="M230.307 55.1427C234.208 52.3699 237.381 55.7811 239.226 60.7977C241.071 65.7961 250.848 96.899 251.705 100.766C252.563 104.634 248.792 142.869 247.756 145.095C246.72 147.32 245.652 148.907 241.735 148.907C237.818 148.907 223.735 148.907 223.735 148.907C223.735 148.907 224.626 146.828 227.717 145.97C230.809 145.095 239.55 144.821 241.249 141.72C242.965 138.637 242.236 102.955 242.236 102.955C242.236 102.955 231.392 76.8509 228.996 70.3566C226.6 63.8624 227.539 57.1128 230.307 55.1427Z" fill="#FF9A8D"/>
<path d="M232.137 53.4638C229.822 53.4638 224.529 59.3925 228.996 70.3561C228.996 70.3561 234.791 61.0891 240.116 63.3328C240.116 63.3328 237.802 51.968 232.137 53.4638Z" fill="#03AA99"/>
<path d="M221.63 40.7866L225.709 44.8729L227.506 51.7502C227.506 51.7502 224.949 53.6838 223.961 55.3621C222.764 57.4052 220.06 62.3124 216.823 62.732C216.823 62.732 217.147 58.2991 216.661 55.9276C216.176 53.5379 214.687 48.8132 214.687 48.8132L221.63 40.7866Z" fill="#FF9A8D"/>
<path d="M221.63 40.7866C221.63 40.7866 222.505 44.6357 222.359 46.5876C222.213 48.5395 220.675 52.6075 216.661 55.9276C216.176 53.5379 214.687 48.8132 214.687 48.8132L221.63 40.7866Z" fill="#BA5964"/>
<path d="M204.441 32.1035C203.68 35.2047 200.524 39.5463 201.22 40.3125C201.786 40.951 204.473 40.805 204.473 40.805C204.473 40.805 206.448 38.6707 205.768 35.6607C205.104 32.669 204.441 32.1035 204.441 32.1035Z" fill="#BA5964"/>
<path d="M211.288 12.7666C207.484 13.1497 203.68 19.0966 203.745 24.4963C203.81 29.896 204.927 32.833 204.619 36.6456C204.311 40.4582 204.328 44.1249 205.752 48.1382C206.691 50.8015 209.167 51.4035 212.437 50.5097C215.448 49.6888 219.543 46.4417 220.498 45.4019C221.437 44.3803 221.615 40.7866 221.615 40.7866C221.615 40.7866 226.099 40.0387 228.154 35.4234C230.21 30.7899 229.838 10.8694 211.288 12.7666Z" fill="#FF9A8D"/>
<path d="M221.63 40.7864C221.63 40.7864 225.726 38.9804 225.353 33.8543C224.981 28.6006 218.701 28.3999 218.944 33.0334C218.944 33.0334 214.541 32.0484 211.87 28.5094C206.836 21.851 206.27 16.4331 206.27 16.4331C207.338 8.15111 219.381 11.0881 219.381 11.0881C219.381 11.0881 225.483 8.11463 230.679 12.0185C234.402 14.8095 236.295 24.8427 233.285 33.1976C230.274 41.5343 225.693 44.8726 225.693 44.8726L221.63 40.7864Z" fill="#001C45"/>
<path d="M207.744 33.4521C207.776 32.7588 208.294 32.2481 208.909 32.2846C209.524 32.321 209.978 32.9048 209.945 33.598C209.913 34.2912 209.395 34.802 208.78 34.7655C208.181 34.729 207.711 34.1453 207.744 33.4521Z" fill="#001C45"/>
<path d="M206.837 30.206L211.871 32.0119C211.871 32.0119 211.758 30.0783 210.026 29.4763C207.921 28.7466 206.837 30.206 206.837 30.206Z" fill="#001C45"/>
<path d="M222.764 32.7411C222.085 32.4675 221.065 32.5039 220.482 33.033C220.272 33.2336 220.628 33.6167 220.838 33.5437C221.988 33.0512 223.412 32.9965 223.978 34.5106C224.011 34.5836 224.059 34.5106 224.043 34.4559C223.914 33.6167 223.493 33.0512 222.764 32.7411Z" fill="#BA5964"/>
<path d="M222.214 32.8685C222.085 32.7955 221.793 33.1603 221.826 33.2698C222.02 33.361 222.311 33.6164 222.457 33.89C222.7 34.3826 222.765 34.8021 222.732 35.3676C222.635 36.6628 221.988 37.5932 220.871 37.9033C220.855 37.9033 220.822 37.9763 220.855 37.9763C221.842 38.2499 222.943 37.1189 223.169 36.1156C223.412 35.021 223.347 33.4704 222.214 32.8685Z" fill="#BA5964"/>
<path d="M216.856 57.5147C216.92 58.9923 214.444 62.2577 215.043 64.5197C215.658 66.7817 219.802 67.0736 222.051 64.5197C224.285 61.9658 225.596 53.9392 228.656 51.7502C228.656 51.7502 227.62 51.7502 227.15 50.3638L216.856 57.5147Z" fill="#FF9A8D"/>
<path d="M172.165 49.7794C172.165 49.7794 170.951 61.9287 175.111 71.6518C175.516 72.6186 175.176 73.7679 174.334 74.2786L169.252 77.4528C168.167 78.1277 166.807 77.4345 166.581 76.0481C165.788 71.2869 164.687 60.8342 167.568 49.1592L172.165 49.7794Z" fill="#1E4174"/>
<path d="M166.856 52.9355C168.135 53.3369 169.997 54.249 170.061 55.6171C170.126 56.9853 168.103 57.0583 168.103 57.0583C168.103 57.0583 169.543 57.7697 169.64 58.7913C169.754 59.8128 168.847 60.8344 167.52 60.8344C167.52 60.8344 168.896 61.3634 168.475 62.7498C168.054 64.1362 166.031 62.987 165.642 64.0085C165.642 64.0085 164.445 62.6951 164.347 59.7581C164.218 56.8211 166.856 52.9355 166.856 52.9355Z" fill="#FF9A8D"/>
<path d="M177.83 58.7369C176.6 56.0918 175.402 54.1581 172.634 52.9359C170.271 51.8961 169.154 49.8347 168.539 50.8745C167.924 51.9143 169.591 55.2161 172.181 56.2195L177.83 58.7369Z" fill="#FF9A8D"/>
<path d="M164.299 49.3783L174.788 50.8742C177.475 51.239 179.142 35.642 176.455 35.2771L166.16 33.3252L164.299 49.3783Z" fill="#1E4174"/>
<path d="M166.16 33.3252C162.34 32.8327 149.181 25.9007 146.316 13.423C135.519 11.8724 130.469 56.8029 141.249 58.3535C144.211 50.6006 159.006 48.6304 164.299 49.3783C166.355 49.6702 168.216 33.6171 166.16 33.3252Z" fill="#3B55CE"/>
<path d="M209.944 1C213.295 1.89387 218.216 6.34496 219.397 11.0697" stroke="#001C45" stroke-width="0.7875" stroke-miterlimit="10" stroke-linecap="round"/>
<path d="M69.4295 369.894C69.4295 369.894 69.6723 348.423 54.5541 328.43C39.4522 308.436 22.1651 301.267 7.22499 307.342C-3.89509 311.866 -1.0301 326.368 8.05049 332.534C18.8145 339.849 59.1025 342.805 60.5431 369.894H69.4295Z" fill="#91DBAC"/>
<path d="M8.84375 317.028C29.3682 315.715 60.8023 337.04 65.124 369.894" stroke="#3B55CE" stroke-width="1.05" stroke-miterlimit="10" stroke-linecap="round"/>
<path d="M74.1229 369.893C74.1229 369.893 84.0614 357.945 82.1514 334.941C80.2252 311.938 62.2744 306.228 59.0533 317.338C56.512 326.094 73.9934 346.47 67.7616 369.893H74.1229Z" fill="#3DC19A"/>
<path d="M67.7617 318.961C71.6141 324.58 79.0274 347.583 71.4684 369.893" stroke="#3B55CE" stroke-width="1.05" stroke-miterlimit="10" stroke-linecap="round"/>
<path d="M410.452 373H5.65415C4.80029 373 4.11328 371.605 4.11328 369.916C4.11328 368.206 4.81011 366.831 5.65415 366.831H410.442C411.296 366.831 411.983 368.226 411.983 369.916C411.993 371.605 411.306 373 410.452 373Z" fill="#638BE2"/>
</svg>
