<svg width="14" height="14" viewBox="0 0 14 14" fill="none" xmlns="http://www.w3.org/2000/svg">
<path d="M13.5898 4.83254H12.2267C12.0168 2.13268 9.7528 0 7 0C4.2472 0 1.98319 2.13268 1.77327 4.83254H0.410156C0.183641 4.83254 0 5.01618 0 5.2427V9.63594C0 9.86245 0.183641 10.0461 0.410156 10.0461H2.16746C2.39397 10.0461 2.57761 9.86245 2.57761 9.63594V5.2427C2.57761 2.80418 4.56148 0.820312 7 0.820312C9.43852 0.820312 11.4224 2.80418 11.4224 5.2427V9.63594C11.4224 11.1055 10.2268 12.3011 8.75727 12.3011H8.2215C8.04975 11.791 7.56725 11.4224 7 11.4224C6.28936 11.4224 5.71118 12.0006 5.71118 12.7112C5.71118 13.4218 6.28936 14 7 14C7.56725 14 8.04975 13.6315 8.2215 13.1214H8.75727C10.5404 13.1214 12.0148 11.7754 12.2184 10.0461H13.5898C13.8164 10.0461 14 9.86245 14 9.63594V5.2427C14 5.01618 13.8164 4.83254 13.5898 4.83254ZM1.7573 9.22578H0.820312V5.65286H1.7573V9.22578ZM7 13.1797C6.74168 13.1797 6.53149 12.9695 6.53149 12.7112C6.53149 12.4529 6.74168 12.2427 7 12.2427C7.25832 12.2427 7.46851 12.4529 7.46851 12.7112C7.46851 12.9695 7.25832 13.1797 7 13.1797ZM13.1797 9.22578H12.2427V5.65286H13.1797V9.22578Z" fill="white"/>
<path d="M10.0278 4.88803C9.87579 4.82534 9.70078 4.85995 9.58439 4.97578C9.58436 4.97578 8.31405 6.23986 7.71177 6.83894C7.44126 7.10968 7.28613 7.48369 7.28613 7.86504C7.28613 8.08871 7.4683 8.27005 7.693 8.27005H9.46517V9.16646C9.46517 9.39013 9.64734 9.57146 9.87205 9.57146C10.0967 9.57146 10.2789 9.39013 10.2789 9.16646V8.27005H10.3078C10.5325 8.27005 10.7147 8.08871 10.7147 7.86504C10.7147 7.64137 10.5325 7.46003 10.3078 7.46003H10.2789V5.2622C10.2789 5.09842 10.1798 4.95076 10.0278 4.88803ZM9.46517 7.46003H8.2438C8.25763 7.44297 8.27234 7.42661 8.28788 7.41103C8.59262 7.1079 9.06923 6.63372 9.46517 6.23973V7.46003Z" fill="white"/>
<path d="M6.57126 9.16646C6.57126 8.94278 6.38865 8.76145 6.16341 8.76145H4.53125C4.54509 8.74438 4.55982 8.72799 4.5754 8.71244C5.1783 8.11419 6.45176 6.85003 6.45176 6.85003C6.52827 6.77408 6.57129 6.67104 6.57129 6.56361V6.34671C6.57129 5.52539 5.89841 4.85718 5.0713 4.85718C4.23599 4.85718 3.57129 5.52927 3.57129 6.34625V6.34669C3.57129 6.57036 3.7539 6.75148 3.97915 6.75148C4.20439 6.75148 4.387 6.56993 4.387 6.34625C4.387 5.975 4.68803 5.66719 5.0713 5.66719C5.44862 5.66719 5.75558 5.97203 5.75558 6.34671V6.3958C5.42486 6.7241 4.48948 7.65259 3.99793 8.14038C3.72676 8.41112 3.57129 8.78513 3.57129 9.16646C3.57129 9.39013 3.7539 9.57146 3.97915 9.57146H6.16343C6.38865 9.57146 6.57126 9.39015 6.57126 9.16646Z" fill="white"/>
</svg>
