<svg width="58" height="55" viewBox="0 0 58 55" fill="none" xmlns="http://www.w3.org/2000/svg">
<path d="M39.8704 31.186H10.2076L35.8942 14.8541C35.9689 14.8066 36.0336 14.7448 36.0845 14.6723C36.1353 14.5999 36.1714 14.518 36.1907 14.4316C36.2099 14.3451 36.2119 14.2558 36.1966 14.1685C36.1813 14.0813 36.149 13.9979 36.1014 13.9232L33.5565 9.92066C32.9761 9.01002 32.0582 8.36679 31.0041 8.1321C29.9501 7.89741 28.846 8.09043 27.934 8.6688L24.3195 10.967L24.6058 9.59702C24.7187 9.10172 24.7326 8.589 24.6467 8.08832C24.5608 7.58764 24.3768 7.10886 24.1053 6.6795C23.8339 6.25014 23.4802 5.87865 23.0647 5.58638C22.6492 5.29412 22.18 5.08683 21.6842 4.97643C21.1883 4.86604 20.6756 4.8547 20.1753 4.94309C19.6751 5.03147 19.1972 5.21783 18.7692 5.49146C18.3412 5.76509 17.9715 6.12059 17.6813 6.53754C17.3911 6.95449 17.1861 7.42467 17.0782 7.92106L15.2004 16.3552L8.91297 14.9557C7.97532 14.7467 6.99343 14.8953 6.15954 15.3722C5.32566 15.8492 4.69984 16.6203 4.40461 17.5344C4.10938 18.4486 4.16601 19.44 4.5634 20.3147C4.96079 21.1893 5.67034 21.8841 6.5531 22.263L2.6809 24.7251C1.77029 25.3055 1.12709 26.2234 0.892401 27.2774C0.657714 28.3314 0.850711 29.4355 1.42905 30.3474L3.974 34.3501C4.0215 34.4248 4.08325 34.4895 4.15574 34.5403C4.22822 34.5912 4.31002 34.6273 4.39645 34.6466C4.48289 34.6658 4.57227 34.6678 4.65949 34.6526C4.74671 34.6373 4.83007 34.6049 4.9048 34.5574L7.27365 33.0516V50.1199C7.27487 51.1998 7.7044 52.2351 8.468 52.9987C9.2316 53.7622 10.2669 54.1917 11.3468 54.1928H36.4719C37.5518 54.1916 38.587 53.7621 39.3506 52.9986C40.1141 52.235 40.5436 51.1998 40.5448 50.1199V31.8602C40.5448 31.7716 40.5274 31.684 40.4935 31.6021C40.4596 31.5203 40.4099 31.446 40.3473 31.3834C40.2846 31.3208 40.2103 31.2711 40.1284 31.2372C40.0466 31.2034 39.9589 31.1859 39.8704 31.186ZM28.6576 9.80693C29.0925 9.52882 29.5979 9.38089 30.1141 9.38058C30.315 9.38069 30.5154 9.40281 30.7115 9.44655C31.0611 9.52343 31.3919 9.66886 31.6849 9.87444C31.9779 10.08 32.2272 10.3417 32.4185 10.6442L34.6017 14.0778L23.9823 20.83L20.3373 15.0973L28.6576 9.80693ZM18.3945 8.21425C18.5401 7.56535 18.9376 7.0009 19.4994 6.64506C20.0613 6.28922 20.7415 6.17114 21.3904 6.31681C22.0393 6.46247 22.6037 6.85994 22.9596 7.42178C23.3154 7.98363 23.4335 8.66381 23.2878 9.31271L22.7343 11.9607L16.7034 15.8094L18.3945 8.21425ZM19.1991 15.8209L22.844 21.5536L16.6904 25.466L13.0455 19.7333L19.1991 15.8209ZM5.95898 20.065C5.69286 19.6465 5.55682 19.1585 5.56807 18.6627C5.57932 18.1669 5.73734 17.6855 6.02217 17.2795C6.30699 16.8735 6.70582 16.561 7.16821 16.3817C7.63061 16.2024 8.1358 16.1642 8.6199 16.272L14.0684 17.4849L8.02015 21.2763L7.52998 21.1671C7.20826 21.0964 6.90376 20.9626 6.6341 20.7734C6.36444 20.5842 6.13497 20.3435 5.95898 20.065ZM4.75039 33.0577L2.56729 29.624C2.18043 29.014 2.05131 28.2755 2.20826 27.5704C2.36521 26.8654 2.79541 26.2514 3.40448 25.8631L11.9075 20.4569L15.5524 26.1896L4.75039 33.0577ZM17.8255 52.8443H11.3468C10.6245 52.8435 9.932 52.5562 9.42125 52.0455C8.9105 51.5347 8.6232 50.8422 8.62237 50.1199V32.5345H17.8258L17.8255 52.8443ZM26.3956 52.8443H19.174V32.5345H26.3956V52.8443ZM39.1961 50.1199C39.1953 50.8422 38.908 51.5347 38.3973 52.0454C37.8866 52.5561 37.1942 52.8435 36.4719 52.8443H27.7441V32.5345H39.1961V50.1199Z" fill="#FCB040"/>
<path d="M47.4093 25.0599L47.7318 23.1794C47.753 23.0554 47.7392 22.928 47.6918 22.8115C47.6444 22.695 47.5653 22.5941 47.4636 22.5201C47.3619 22.4462 47.2415 22.4022 47.1161 22.3931C46.9906 22.384 46.8652 22.4101 46.7538 22.4686L45.065 23.3563L43.3762 22.4686C43.2648 22.41 43.1393 22.3838 43.0138 22.3929C42.8883 22.4019 42.7679 22.4459 42.6661 22.5199C42.5643 22.5938 42.4852 22.6948 42.4378 22.8113C42.3904 22.9279 42.3766 23.0553 42.3978 23.1794L42.7203 25.0599L41.3541 26.3916C41.264 26.4794 41.2002 26.5907 41.1701 26.7128C41.1399 26.835 41.1445 26.9631 41.1834 27.0828C41.2223 27.2025 41.2938 27.3089 41.39 27.39C41.4862 27.4711 41.6032 27.5236 41.7277 27.5417L43.6156 27.8161L44.46 29.5271C44.5157 29.6399 44.6018 29.7349 44.7087 29.8014C44.8155 29.8678 44.9389 29.903 45.0647 29.903C45.1905 29.903 45.3139 29.8678 45.4207 29.8014C45.5276 29.7349 45.6137 29.6399 45.6694 29.5271L46.5137 27.8161L48.4015 27.5417C48.5261 27.5236 48.643 27.4711 48.7392 27.39C48.8354 27.3089 48.907 27.2025 48.9459 27.0828C48.9848 26.9631 48.9894 26.835 48.9592 26.7128C48.9291 26.5907 48.8653 26.4794 48.7752 26.3916L47.4093 25.0599ZM45.969 26.532C45.8608 26.5478 45.758 26.5895 45.6696 26.6538C45.5812 26.718 45.5097 26.8028 45.4613 26.9009L45.0647 27.7046L44.668 26.9009C44.6196 26.8028 44.5482 26.7181 44.4597 26.6538C44.3713 26.5896 44.2686 26.5478 44.1604 26.532L43.2733 26.4032L43.9152 25.7776C43.9935 25.7013 44.0521 25.6071 44.0859 25.5031C44.1197 25.3991 44.1277 25.2885 44.1092 25.1807L43.9576 24.2973L44.751 24.7143C44.8477 24.7652 44.9554 24.7918 45.0647 24.7918C45.174 24.7918 45.2817 24.7652 45.3784 24.7143L46.1717 24.2973L46.0202 25.1807C46.0017 25.2885 46.0097 25.3991 46.0435 25.5031C46.0773 25.607 46.1358 25.7012 46.2141 25.7776L46.856 26.4032L45.969 26.532Z" fill="#FCB040"/>
<path d="M55.1643 15.7706L53.3101 15.32L52.6301 13.5374C52.5853 13.4198 52.5085 13.3171 52.4084 13.2409C52.3082 13.1647 52.1888 13.1181 52.0635 13.1063C51.9382 13.0944 51.8122 13.1179 51.6995 13.174C51.5869 13.2301 51.4922 13.3166 51.4262 13.4237L50.4248 15.0478L48.5193 15.1437C48.3936 15.15 48.2723 15.1914 48.1689 15.263C48.0655 15.3347 47.9843 15.4339 47.9343 15.5494C47.8844 15.6649 47.8677 15.792 47.8863 15.9164C47.9048 16.0408 47.9578 16.1576 48.0392 16.2535L49.2743 17.7077L48.7768 19.5496C48.744 19.671 48.7458 19.7992 48.7821 19.9197C48.8183 20.0402 48.8875 20.1481 48.9819 20.2313C49.0763 20.3145 49.1921 20.3696 49.3162 20.3904C49.4402 20.4112 49.5677 20.3969 49.684 20.3491L51.4483 19.6238L53.0471 20.6663C53.1524 20.7351 53.2749 20.7729 53.4007 20.7757C53.5265 20.7785 53.6505 20.746 53.7588 20.6819C53.867 20.6179 53.9552 20.5248 54.0134 20.4132C54.0715 20.3017 54.0973 20.1761 54.0878 20.0506L53.9434 18.1481L55.4282 16.9506C55.5261 16.8716 55.5999 16.7668 55.6414 16.6481C55.6829 16.5293 55.6903 16.4013 55.6629 16.2786C55.6354 16.1559 55.5742 16.0432 55.4861 15.9535C55.398 15.8637 55.2865 15.8004 55.1643 15.7706ZM52.8206 17.3214C52.7355 17.39 52.6684 17.4783 52.625 17.5786C52.5817 17.6789 52.5633 17.7883 52.5716 17.8973L52.639 18.791L51.8882 18.3012C51.7967 18.2415 51.692 18.2049 51.5832 18.1946C51.4743 18.1844 51.3647 18.2007 51.2636 18.2423L50.4347 18.583L50.6684 17.7177C50.6969 17.6122 50.6994 17.5013 50.6755 17.3947C50.6516 17.288 50.6022 17.1887 50.5314 17.1054L49.9512 16.4223L50.8464 16.3773C50.9556 16.3719 51.0618 16.34 51.1559 16.2843C51.25 16.2287 51.3292 16.151 51.3866 16.058L51.8569 15.2951L52.1763 16.1325C52.2152 16.2346 52.2784 16.3257 52.3605 16.3979C52.4425 16.4702 52.5408 16.5214 52.647 16.5472L53.518 16.759L52.8206 17.3214Z" fill="#FCB040"/>
<path d="M45.2485 4.8094L44.7508 6.65122C44.7179 6.77268 44.7197 6.90091 44.756 7.02141C44.7922 7.1419 44.8614 7.24986 44.9558 7.33306C45.0502 7.41626 45.166 7.47139 45.2901 7.49221C45.4142 7.51303 45.5416 7.49871 45.658 7.45088L47.4223 6.7255L49.0203 7.76822C49.1257 7.83696 49.2482 7.87485 49.374 7.8776C49.4998 7.88035 49.6238 7.84785 49.7321 7.78378C49.8404 7.71971 49.9286 7.62663 49.9867 7.51505C50.0448 7.40347 50.0706 7.27786 50.061 7.15241L49.9166 5.24991L51.4018 4.05222C51.4997 3.97326 51.5735 3.86848 51.615 3.74974C51.6565 3.63099 51.6639 3.50302 51.6365 3.38027C51.609 3.25752 51.5478 3.1449 51.4597 3.05514C51.3716 2.96537 51.2601 2.90203 51.1379 2.87229L49.2838 2.42178L48.6039 0.639069C48.5591 0.521504 48.4822 0.418829 48.3821 0.34266C48.2819 0.26649 48.1624 0.219864 48.0372 0.208055C47.9119 0.196246 47.7858 0.219725 47.6732 0.275837C47.5606 0.331949 47.4659 0.418455 47.3999 0.525571L46.3986 2.14961L44.493 2.24535C44.3674 2.25165 44.246 2.29299 44.1426 2.36468C44.0392 2.43636 43.9579 2.53555 43.908 2.65101C43.858 2.76648 43.8414 2.89362 43.8599 3.01805C43.8784 3.14249 43.9314 3.25926 44.0128 3.35516L45.2485 4.8094ZM46.8207 3.47844C46.9299 3.47295 47.0361 3.44101 47.1302 3.38535C47.2243 3.3297 47.3034 3.252 47.3608 3.15896L47.8312 2.39604L48.1506 3.23346C48.1895 3.33559 48.2527 3.42672 48.3347 3.499C48.4167 3.57128 48.5151 3.62253 48.6213 3.64835L49.4922 3.85995L48.7946 4.42249C48.7095 4.4911 48.6423 4.57938 48.5989 4.67971C48.5555 4.78004 48.5372 4.88941 48.5455 4.99841L48.6129 5.89224L47.8621 5.4024C47.7705 5.34268 47.6658 5.30612 47.557 5.29586C47.4482 5.28561 47.3385 5.30196 47.2374 5.34352L46.4085 5.68424L46.6423 4.81895C46.6708 4.71341 46.6732 4.60252 46.6494 4.49582C46.6255 4.38913 46.5761 4.28984 46.5053 4.20651L45.9251 3.52327L46.8207 3.47844Z" fill="#FCB040"/>
<path d="M33.0159 25.1584C31.4937 26.1164 30.75 27.2773 30.7191 27.3263C30.6233 27.4773 30.5915 27.6602 30.6305 27.8347C30.6696 28.0092 30.7764 28.161 30.9274 28.2568C31.0784 28.3526 31.2613 28.3844 31.4358 28.3454C31.6103 28.3063 31.7621 28.1995 31.8579 28.0485C31.9591 27.8912 34.3986 24.2036 39.7084 25.517C39.8813 25.5581 40.0635 25.5293 40.2152 25.4368C40.367 25.3443 40.4761 25.1956 40.5188 25.0231C40.5615 24.8505 40.5344 24.6681 40.4433 24.5155C40.3522 24.3629 40.2045 24.2524 40.0324 24.2081C36.7654 23.3998 34.4135 24.2787 33.0159 25.1584Z" fill="#FCB040"/>
<path d="M45.81 18.0168C45.9752 18.0854 46.1608 18.0855 46.3261 18.0172C46.4914 17.9489 46.6227 17.8177 46.6913 17.6525C46.7598 17.4874 46.7599 17.3017 46.6916 17.1365C46.6233 16.9712 46.4921 16.8398 46.327 16.7713C41.527 14.7792 38.0383 16.271 35.957 17.8735C34.5762 18.9473 33.4333 20.296 32.6006 21.8342C32.5612 21.9135 32.5379 21.9998 32.5318 22.0881C32.5258 22.1765 32.5372 22.2651 32.5655 22.3491C32.5937 22.433 32.6382 22.5105 32.6964 22.5773C32.7546 22.644 32.8254 22.6986 32.9047 22.738C32.984 22.7774 33.0702 22.8007 33.1586 22.8068C33.2469 22.8128 33.3356 22.8014 33.4195 22.7731C33.5034 22.7449 33.581 22.7004 33.6477 22.6422C33.7144 22.584 33.769 22.5133 33.8084 22.4339C34.5514 21.0803 35.5624 19.8921 36.7796 18.9419C39.3966 16.9276 42.4349 16.6161 45.81 18.0168Z" fill="#FCB040"/>
<path d="M38.2339 13.0218C38.1789 13.1919 38.1937 13.3769 38.2751 13.5361C38.3565 13.6954 38.4978 13.8157 38.6679 13.8708C39.5961 14.1443 40.5588 14.2834 41.5265 14.2838C42.654 14.2838 43.9563 14.0803 45.1241 13.3881C46.6524 12.4826 47.6323 10.9398 48.0385 8.80323C48.0553 8.7161 48.0548 8.6265 48.037 8.53956C48.0192 8.45262 47.9844 8.37006 47.9346 8.2966C47.8848 8.22314 47.821 8.16024 47.7468 8.1115C47.6726 8.06277 47.5896 8.02915 47.5024 8.01258C47.4152 7.99602 47.3256 7.99683 47.2387 8.01497C47.1518 8.0331 47.0694 8.06821 46.9961 8.11828C46.9228 8.16835 46.8602 8.2324 46.8117 8.30674C46.7632 8.38108 46.7299 8.46427 46.7137 8.55151C46.3835 10.2889 45.6194 11.5249 44.4425 12.225C42.2039 13.557 39.1309 12.6034 39.0822 12.5879C38.9122 12.5331 38.7273 12.548 38.5683 12.6293C38.4092 12.7107 38.289 12.8518 38.2339 13.0218Z" fill="#FCB040"/>
<path d="M29.3216 30.4423C29.5618 30.4423 29.7966 30.3711 29.9963 30.2377C30.196 30.1043 30.3517 29.9147 30.4436 29.6928C30.5355 29.4709 30.5596 29.2267 30.5127 28.9912C30.4659 28.7556 30.3503 28.5392 30.1804 28.3694C30.0106 28.1995 29.7942 28.0839 29.5587 28.037C29.3231 27.9901 29.079 28.0142 28.8571 28.1061C28.6352 28.198 28.4455 28.3536 28.3121 28.5533C28.1786 28.753 28.1074 28.9878 28.1074 29.228C28.1078 29.5499 28.2359 29.8585 28.4635 30.0862C28.6911 30.3138 28.9997 30.4419 29.3216 30.4423ZM29.3216 29.0938C29.3482 29.0938 29.3742 29.1017 29.3963 29.1164C29.4184 29.1311 29.4356 29.1521 29.4458 29.1767C29.456 29.2012 29.4586 29.2282 29.4535 29.2543C29.4483 29.2803 29.4355 29.3043 29.4167 29.3231C29.3979 29.3418 29.374 29.3546 29.3479 29.3598C29.3219 29.365 29.2948 29.3623 29.2703 29.3521C29.2458 29.342 29.2248 29.3247 29.21 29.3026C29.1953 29.2805 29.1874 29.2546 29.1875 29.228C29.1876 29.1925 29.2018 29.1584 29.2269 29.1333C29.2521 29.1082 29.2861 29.094 29.3216 29.0938Z" fill="#FCB040"/>
<path d="M38.8755 8.41814C39.1156 8.41814 39.3504 8.34692 39.5501 8.21349C39.7498 8.08006 39.9054 7.89041 39.9973 7.66852C40.0892 7.44663 40.1133 7.20247 40.0664 6.96692C40.0196 6.73136 39.9039 6.51499 39.7341 6.34517C39.5643 6.17534 39.3479 6.05969 39.1124 6.01284C38.8768 5.96598 38.6326 5.99003 38.4108 6.08194C38.1889 6.17385 37.9992 6.32949 37.8658 6.52918C37.7324 6.72888 37.6611 6.96365 37.6611 7.20382C37.6615 7.52577 37.7895 7.83443 38.0172 8.06208C38.2448 8.28973 38.5535 8.41778 38.8755 8.41814ZM38.8755 7.06965C38.902 7.06965 38.928 7.07753 38.9501 7.09229C38.9722 7.10705 38.9894 7.12803 38.9995 7.15257C39.0097 7.17711 39.0123 7.20412 39.0072 7.23017C39.002 7.25623 38.9892 7.28015 38.9704 7.29893C38.9516 7.31771 38.9276 7.33049 38.9016 7.33565C38.8755 7.34082 38.8485 7.33815 38.824 7.32797C38.7994 7.31779 38.7785 7.30056 38.7637 7.27846C38.749 7.25636 38.7411 7.23039 38.7412 7.20382C38.7413 7.16827 38.7556 7.13423 38.7807 7.1091C38.8058 7.08397 38.8399 7.06979 38.8755 7.06965Z" fill="#FCB040"/>
<path d="M55.9907 7.49121C55.7505 7.49121 55.5157 7.56243 55.316 7.69587C55.1163 7.8293 54.9607 8.01896 54.8688 8.24086C54.7769 8.46275 54.7528 8.70692 54.7997 8.94247C54.8466 9.17803 54.9622 9.3944 55.1321 9.56422C55.3019 9.73404 55.5183 9.84969 55.7539 9.89653C55.9894 9.94337 56.2336 9.91931 56.4555 9.82738C56.6773 9.73546 56.867 9.5798 57.0004 9.38009C57.1338 9.18038 57.205 8.94559 57.205 8.70542C57.2046 8.38348 57.0766 8.07483 56.8489 7.8472C56.6213 7.61956 56.3126 7.49154 55.9907 7.49121ZM55.9907 8.83971C55.9641 8.83971 55.9382 8.83183 55.9161 8.81707C55.894 8.80232 55.8768 8.78135 55.8666 8.75681C55.8565 8.73227 55.8538 8.70527 55.859 8.67922C55.8642 8.65317 55.877 8.62924 55.8957 8.61046C55.9145 8.59168 55.9384 8.57889 55.9645 8.57371C55.9905 8.56853 56.0175 8.57119 56.0421 8.58135C56.0666 8.59152 56.0876 8.60873 56.1023 8.63081C56.1171 8.65289 56.125 8.67886 56.125 8.70542C56.1248 8.74099 56.1106 8.77506 56.0855 8.80021C56.0603 8.82536 56.0263 8.83956 55.9907 8.83971Z" fill="#FCB040"/>
<path d="M28.8241 23.6054C28.8241 23.3652 28.7529 23.1304 28.6194 22.9307C28.486 22.731 28.2963 22.5754 28.0744 22.4835C27.8524 22.3916 27.6083 22.3676 27.3727 22.4145C27.1371 22.4614 26.9207 22.5771 26.7509 22.747C26.5811 22.9169 26.4655 23.1333 26.4188 23.3689C26.372 23.6045 26.3961 23.8487 26.4881 24.0706C26.5801 24.2925 26.7359 24.4821 26.9357 24.6154C27.1355 24.7488 27.3703 24.8199 27.6105 24.8198C27.9323 24.8192 28.2408 24.6911 28.4684 24.4635C28.6959 24.2358 28.8238 23.9273 28.8241 23.6054ZM27.6105 23.7403C27.584 23.7403 27.558 23.7325 27.5359 23.7177C27.5138 23.703 27.4966 23.6821 27.4864 23.6576C27.4762 23.6331 27.4735 23.6061 27.4786 23.5801C27.4838 23.554 27.4965 23.5301 27.5152 23.5113C27.5339 23.4925 27.5578 23.4796 27.5838 23.4744C27.6098 23.4691 27.6368 23.4717 27.6614 23.4818C27.6859 23.4918 27.7069 23.509 27.7218 23.531C27.7366 23.553 27.7446 23.5789 27.7447 23.6054C27.7445 23.6411 27.7303 23.6752 27.705 23.7004C27.6798 23.7255 27.6456 23.7397 27.6099 23.7397L27.6105 23.7403Z" fill="#FCB040"/>
<path d="M53.9907 24.3689C53.7505 24.3689 53.5157 24.4401 53.316 24.5735C53.1164 24.707 52.9607 24.8966 52.8688 25.1185C52.7769 25.3404 52.7528 25.5846 52.7997 25.8201C52.8466 26.0557 52.9622 26.272 53.132 26.4419C53.3019 26.6117 53.5182 26.7273 53.7538 26.7742C53.9893 26.8211 54.2335 26.797 54.4554 26.7051C54.6773 26.6132 54.8669 26.4575 55.0004 26.2579C55.1338 26.0582 55.205 25.8234 55.205 25.5832C55.2046 25.2613 55.0766 24.9526 54.8489 24.725C54.6213 24.4973 54.3126 24.3693 53.9907 24.3689ZM53.9907 25.7174C53.9642 25.7174 53.9382 25.7095 53.9162 25.6947C53.8941 25.68 53.8769 25.659 53.8668 25.6345C53.8567 25.61 53.854 25.583 53.8592 25.557C53.8644 25.531 53.8772 25.5071 53.896 25.4883C53.9147 25.4695 53.9386 25.4568 53.9647 25.4516C53.9907 25.4464 54.0177 25.4491 54.0422 25.4593C54.0667 25.4694 54.0876 25.4866 54.1024 25.5087C54.1171 25.5307 54.125 25.5567 54.125 25.5832C54.1248 25.6188 54.1106 25.6528 54.0854 25.6779C54.0603 25.7031 54.0262 25.7172 53.9907 25.7174Z" fill="#FCB040"/>
</svg>
