<svg width="16" height="16" viewBox="0 0 16 16" fill="none" xmlns="http://www.w3.org/2000/svg">
<path d="M6.83337 7.5H0.5C0.223999 7.5 0 7.276 0 7C0 6.724 0.223999 6.5 0.5 6.5H6.83337C7.10938 6.5 7.33337 6.724 7.33337 7C7.33337 7.276 7.10938 7.5 6.83337 7.5Z" fill="white"/>
<path d="M4.33386 10C4.20581 10 4.07788 9.95129 3.98047 9.85339C3.78516 9.65796 3.78516 9.34131 3.98047 9.146L6.1272 6.99939L3.98047 4.85339C3.78516 4.65796 3.78516 4.34131 3.98047 4.146C4.17578 3.95068 4.49243 3.95068 4.68787 4.146L7.18787 6.646C7.38318 6.84131 7.38318 7.15796 7.18787 7.35339L4.68787 9.85339C4.58984 9.95129 4.46179 10 4.33386 10Z" fill="white"/>
<path d="M10.6663 16.0001C9.93091 16.0001 9.33301 15.4021 9.33301 14.6667V2.66672C9.33301 2.09678 9.69568 1.58811 10.2356 1.40073L14.241 0.0654034C15.137 -0.209255 15.9996 0.455418 15.9996 1.33347V13.3335C15.9996 13.9028 15.637 14.4107 15.0977 14.5987L11.0909 15.9348C10.9449 15.9801 10.8097 16.0001 10.6663 16.0001ZM14.6663 1.0001C14.6229 1.0001 14.5863 1.00547 14.547 1.01743L10.5583 2.34739C10.4276 2.3928 10.333 2.52475 10.333 2.66672V14.6667C10.333 14.8941 10.5796 15.0475 10.7856 14.9828L14.7743 13.6528C14.9043 13.6074 14.9996 13.4754 14.9996 13.3335V1.33347C14.9996 1.15012 14.8503 1.0001 14.6663 1.0001Z" fill="white"/>
<path d="M5.83301 3.33337C5.55701 3.33337 5.33301 3.10938 5.33301 2.83337V1.83337C5.33301 0.822021 6.15491 0 7.16626 0H14.6663C14.9423 0 15.1663 0.223999 15.1663 0.5C15.1663 0.776001 14.9423 1 14.6663 1H7.16626C6.70691 1 6.33301 1.37402 6.33301 1.83337V2.83337C6.33301 3.10938 6.10901 3.33337 5.83301 3.33337Z" fill="white"/>
<path d="M9.83301 13.9999H7.16626C6.15491 13.9999 5.33301 13.1779 5.33301 12.1665V11.1665C5.33301 10.8905 5.55701 10.6665 5.83301 10.6665C6.10901 10.6665 6.33301 10.8905 6.33301 11.1665V12.1665C6.33301 12.6259 6.70691 12.9999 7.16626 12.9999H9.83301C10.109 12.9999 10.333 13.2239 10.333 13.4999C10.333 13.7759 10.109 13.9999 9.83301 13.9999Z" fill="white"/>
</svg>
