<svg width="19" height="18" viewBox="0 0 19 18" fill="none" xmlns="http://www.w3.org/2000/svg">
<path d="M17.0691 16.1256H16.8054V8.01742C16.8054 7.64886 16.5055 7.349 16.1369 7.349H11.3523V0.899478C11.3523 0.406211 10.9509 0.00488281 10.4577 0.00488281H2.10089C1.60763 0.00488281 1.2063 0.406211 1.2063 0.899478V16.1255H0.942578C0.42579 16.1256 0.00537109 16.546 0.00537109 17.0628C0.00537109 17.5795 0.42579 17.9999 0.942542 17.9999H17.0691C17.5858 17.9999 18.0063 17.5795 18.0063 17.0628C18.0063 16.546 17.5858 16.1256 17.0691 16.1256ZM1.73363 0.899478C1.73363 0.696968 1.89838 0.532253 2.10086 0.532253H10.4576C10.6601 0.532253 10.8249 0.697003 10.8249 0.899478V7.349H8.57401C8.20541 7.349 7.90551 7.64883 7.90551 8.01742V14.0816C7.90551 14.2272 8.02354 14.3453 8.1692 14.3453C8.31486 14.3453 8.43288 14.2272 8.43288 14.0816V8.01742C8.43288 7.93965 8.4962 7.87637 8.57401 7.87637H16.1369C16.2147 7.87637 16.278 7.93965 16.278 8.01742V16.1255H8.43292V15.3143C8.43292 15.1687 8.31489 15.0506 8.16923 15.0506C8.02357 15.0506 7.90555 15.1687 7.90555 15.3143V16.1255H1.73363V0.899478ZM17.0691 17.4726H0.942542C0.716547 17.4726 0.532741 17.2887 0.532741 17.0628C0.532741 16.8368 0.716582 16.6529 0.942542 16.6529H17.0691C17.2951 16.6529 17.4789 16.8368 17.4789 17.0628C17.4789 17.2888 17.295 17.4726 17.0691 17.4726Z" fill="#FCB040"/>
</svg>
