<svg width="21" height="19" viewBox="0 0 21 19" fill="none" xmlns="http://www.w3.org/2000/svg">
<path d="M19.7652 8.93938C19.6665 8.8026 19.4758 8.77174 19.3389 8.8703C19.2022 8.96894 19.1713 9.15974 19.2698 9.29656C19.8996 10.1699 20.2325 11.2024 20.2325 12.2824C20.2325 15.1011 17.9393 17.3942 15.1207 17.3942C12.302 17.3942 10.0089 15.1011 10.0089 12.2824C10.0089 9.46383 12.302 7.17069 15.1207 7.17069C16.3635 7.17069 17.5617 7.62236 18.4944 8.44244C18.621 8.55366 18.8139 8.54141 18.9253 8.41472C19.0366 8.28812 19.0243 8.09516 18.8976 7.98382C18.1709 7.34493 17.3004 6.90604 16.3694 6.69802L17.0978 3.56896C17.2846 2.76663 16.676 1.99841 15.8509 1.99841H11.825V1.18651C11.825 0.532271 11.2927 0 10.6385 0H6.49324C5.839 0 5.30673 0.53223 5.30673 1.18651V1.99837H3.4631C3.29444 1.99837 3.15778 2.13503 3.15778 2.30368C3.15778 2.47234 3.29444 2.609 3.4631 2.609H15.851C16.2818 2.609 16.601 3.01011 16.5031 3.43047L15.7661 6.59645C15.5528 6.57227 15.3374 6.56002 15.1207 6.56002C14.0598 6.56002 13.0655 6.8506 12.2128 7.35584H10.1685V7.00175C10.1685 6.58371 9.8284 6.24363 9.41036 6.24363H7.72143C7.30339 6.24363 6.9633 6.58371 6.9633 7.00175V7.35584H2.12235C1.78015 7.35584 1.48789 7.12156 1.41095 6.79108L0.628568 3.43043C0.530907 3.01088 0.849129 2.609 1.28077 2.609H2.24231C2.41097 2.609 2.54763 2.47234 2.54763 2.30368C2.54763 2.13503 2.41097 1.99837 2.24231 1.99837H1.28077C0.453967 1.99837 -0.152517 2.76838 0.0338494 3.56888L0.816236 6.92949C0.863215 7.13125 0.953507 7.31273 1.07572 7.46551V11.4592C1.07572 12.268 1.7337 12.9259 2.54242 12.9259H4.44203C4.61069 12.9259 4.74735 12.7893 4.74735 12.6206C4.74735 12.452 4.61069 12.3153 4.44203 12.3153H2.54246C2.0704 12.3153 1.68639 11.9313 1.68639 11.4592V7.89446C1.82354 7.94119 1.9703 7.96652 2.12239 7.96652H6.9633V8.31706C6.9633 8.7351 7.30343 9.07518 7.72143 9.07518H9.41036C9.8284 9.07518 10.1685 8.7351 10.1685 8.31706V7.96652H11.3674C10.1255 9.04791 9.38907 10.6174 9.39872 12.3153H5.66285C5.49419 12.3153 5.35753 12.452 5.35753 12.6207C5.35753 12.7893 5.49419 12.926 5.66285 12.926H9.43471C9.75554 15.7795 12.183 18.0049 15.1207 18.0049C18.2761 18.0049 20.8431 15.4378 20.8431 12.2825C20.8431 11.0734 20.4704 9.91741 19.7652 8.93938ZM5.91736 1.18651C5.91736 0.868975 6.1757 0.610636 6.49324 0.610636H10.6384C10.956 0.610636 11.2143 0.868975 11.2143 1.18651V1.99837H5.91736V1.18651ZM9.55785 8.31702C9.55785 8.39836 9.4917 8.46451 9.41036 8.46451H7.72143C7.64009 8.46451 7.57394 8.39836 7.57394 8.31702V7.00171C7.57394 6.92037 7.64009 6.85422 7.72143 6.85422H9.41036C9.4917 6.85422 9.55785 6.92037 9.55785 7.00171V8.31702Z" fill="#FCB040"/>
</svg>
