<svg width="13" height="12" viewBox="0 0 13 12" fill="none" xmlns="http://www.w3.org/2000/svg">
<path d="M12.0515 1.12821C11.4103 0.400664 10.5208 0 9.54688 0C8.1771 0 7.30988 0.818086 6.8236 1.50439C6.69744 1.68248 6.59011 1.86106 6.5 2.02909C6.40989 1.86106 6.30259 1.68248 6.1764 1.50439C5.69012 0.818086 4.8229 0 3.45312 0C2.47919 0 1.58968 0.40069 0.948467 1.12823C0.336857 1.82226 0 2.75176 0 3.7455C0 4.82721 0.422322 5.83332 1.32907 6.91171C2.13946 7.87554 3.30533 8.86902 4.65537 10.0194C5.15844 10.4481 5.67866 10.8915 6.23251 11.376L6.24914 11.3906C6.32095 11.4535 6.41047 11.4849 6.5 11.4849C6.58953 11.4849 6.67905 11.4535 6.75086 11.3906L6.76749 11.376C7.32134 10.8915 7.84156 10.4482 8.34471 10.0194C9.69467 8.86905 10.8605 7.87556 11.6709 6.91171C12.5777 5.83329 13 4.82721 13 3.7455C13 2.75176 12.6631 1.82226 12.0515 1.12821ZM7.8506 9.43968C7.41693 9.80921 6.97062 10.1895 6.5 10.5987C6.02941 10.1896 5.58307 9.80924 5.14932 9.43962C2.5072 7.18816 0.761719 5.70075 0.761719 3.7455C0.761719 2.93731 1.03099 2.18667 1.51993 1.63186C2.01449 1.07075 2.70103 0.761719 3.45312 0.761719C4.49742 0.761719 5.17248 1.40507 5.55486 1.94477C5.89786 2.42882 6.07684 2.91677 6.13788 3.10408C6.18894 3.26087 6.33511 3.36697 6.5 3.36697C6.66489 3.36697 6.81106 3.26087 6.86212 3.10408C6.92316 2.91677 7.10214 2.42882 7.44514 1.94474C7.82752 1.40507 8.50258 0.761719 9.54688 0.761719C10.299 0.761719 10.9855 1.07075 11.48 1.63186C11.969 2.18667 12.2383 2.93731 12.2383 3.7455C12.2383 5.70075 10.4928 7.18816 7.8506 9.43968Z" fill="white"/>
</svg>
