<svg width="13" height="12" viewBox="0 0 13 12" fill="none" xmlns="http://www.w3.org/2000/svg">
<path d="M5.26059 0.131822C5.09825 -0.0383459 4.82857 -0.0445919 4.65871 0.117908L1.8203 2.82861C1.65013 2.99095 1.64388 3.26047 1.80638 3.43049C1.88997 3.51806 2.00209 3.56219 2.11435 3.56219C2.22007 3.56219 2.32595 3.52301 2.40827 3.4444L5.24668 0.733705C5.41685 0.571358 5.42309 0.301837 5.26059 0.131822Z" fill="white"/>
<path d="M11.1793 2.82855L8.34087 0.117849C8.17099 -0.0444984 7.90149 -0.0384046 7.73884 0.131763C7.57662 0.301778 7.58274 0.571299 7.75275 0.733647L10.5912 3.44434C10.6736 3.52326 10.7795 3.56228 10.8852 3.56228C10.9973 3.56228 11.1094 3.51816 11.1932 3.43043C11.3554 3.26039 11.3493 2.99089 11.1793 2.82855Z" fill="white"/>
<path d="M11.574 5.32666L10.5759 10.5302H2.39708L1.42592 5.32864L0.588867 5.48505L1.6249 11.0342C1.66251 11.2357 1.83849 11.3817 2.04342 11.3817H10.9277C11.1318 11.3817 11.3073 11.2367 11.3459 11.0363L12.4103 5.48703L11.574 5.32666Z" fill="white"/>
<path d="M12.5742 2.71143H0.425775C0.190607 2.71143 0 2.90201 0 3.13718V5.40791C0 5.64307 0.190607 5.83368 0.425775 5.83368H12.5742C12.8094 5.83368 13 5.64322 13 5.40791V3.13718C13 2.90201 12.8094 2.71143 12.5742 2.71143ZM12.1485 4.98231H0.851524V3.5631H12.1485V4.98231Z" fill="white"/>
<path d="M8.75438 6.70508C8.5933 6.53377 8.32394 6.52512 8.1525 6.68635L6.10173 8.61364L5.42844 7.92063C5.26468 7.75173 4.99515 7.74805 4.82641 7.9117C4.65766 8.07562 4.65383 8.34511 4.8176 8.51373L5.78267 9.50719C5.86613 9.59306 5.97696 9.63633 6.08809 9.63633C6.1927 9.63633 6.29756 9.59801 6.37973 9.52108L8.73562 7.30697C8.90695 7.14589 8.91531 6.87652 8.75438 6.70508Z" fill="white"/>
</svg>
