<svg width="14" height="15" viewBox="0 0 14 15" fill="none" xmlns="http://www.w3.org/2000/svg">
<path fill-rule="evenodd" clip-rule="evenodd" d="M9.751 4.326C8.038 4.326 7.152 4.838 6.538 5.627C6.296 5.119 6.027 4.588 5.677 4.071C5.74 4.009 5.804 3.947 5.87 3.886C6.822 3.018 8.09 2.596 9.751 2.596V0L13.002 3.46L9.751 6.922V4.326ZM9.751 10.673V8.078L13.002 11.539L9.751 15V12.404C8.09 12.404 6.822 11.983 5.87 11.114C5.035 10.351 4.584 9.392 4.149 8.465C3.367 6.799 2.748 5.482 0 5.482V3.753C1.66 3.753 2.93 4.174 3.881 5.042C4.717 5.805 5.167 6.763 5.603 7.691C6.385 9.358 7.004 10.673 9.751 10.673ZM3.213 9.75C3.455 10.258 3.724 10.789 4.074 11.305C4.012 11.368 3.947 11.43 3.881 11.49C2.93 12.359 1.66 12.781 0 12.781V11.05C1.714 11.05 2.6 10.54 3.213 9.75Z" fill="white"/>
</svg>
